<svg width="159" height="18" viewBox="0 0 159 18" fill="none" xmlns="http://www.w3.org/2000/svg">
<path d="M12.224 12.776C12.096 13.432 11.872 14.04 11.552 14.6C11.248 15.16 10.856 15.648 10.376 16.064C9.896 16.464 9.336 16.776 8.696 17C8.056 17.224 7.344 17.336 6.56 17.336C5.728 17.336 4.936 17.2 4.184 16.928C3.448 16.656 2.8 16.264 2.24 15.752C1.68 15.224 1.232 14.584 0.896 13.832C0.576 13.08 0.416 12.216 0.416 11.24V10.952C0.416 9.992 0.576 9.128 0.896 8.36C1.232 7.592 1.68 6.944 2.24 6.416C2.8 5.888 3.448 5.48 4.184 5.192C4.936 4.904 5.728 4.76 6.56 4.76C7.312 4.76 8.008 4.872 8.648 5.096C9.288 5.32 9.848 5.64 10.328 6.056C10.824 6.456 11.224 6.936 11.528 7.496C11.848 8.056 12.064 8.664 12.176 9.32L10.304 9.752C10.256 9.336 10.136 8.936 9.944 8.552C9.768 8.152 9.52 7.808 9.2 7.52C8.896 7.216 8.52 6.976 8.072 6.8C7.624 6.624 7.104 6.536 6.512 6.536C5.936 6.536 5.392 6.648 4.88 6.872C4.384 7.08 3.944 7.384 3.56 7.784C3.176 8.168 2.872 8.632 2.648 9.176C2.44 9.72 2.336 10.312 2.336 10.952V11.24C2.336 11.912 2.44 12.52 2.648 13.064C2.872 13.592 3.176 14.04 3.56 14.408C3.944 14.776 4.392 15.064 4.904 15.272C5.416 15.464 5.968 15.56 6.56 15.56C7.152 15.56 7.664 15.472 8.096 15.296C8.544 15.104 8.92 14.864 9.224 14.576C9.544 14.272 9.792 13.928 9.968 13.544C10.16 13.16 10.288 12.76 10.352 12.344L12.224 12.776ZM27.0153 11.192C27.0153 12.184 26.8473 13.064 26.5113 13.832C26.1913 14.584 25.7593 15.224 25.2153 15.752C24.6713 16.264 24.0313 16.656 23.2953 16.928C22.5753 17.2 21.8233 17.336 21.0393 17.336C20.2393 17.336 19.4793 17.2 18.7593 16.928C18.0393 16.656 17.4073 16.264 16.8633 15.752C16.3193 15.224 15.8793 14.584 15.5433 13.832C15.2233 13.064 15.0633 12.184 15.0633 11.192V10.904C15.0633 9.928 15.2233 9.064 15.5433 8.312C15.8793 7.544 16.3193 6.896 16.8633 6.368C17.4233 5.84 18.0633 5.44 18.7833 5.168C19.5033 4.896 20.2553 4.76 21.0393 4.76C21.8233 4.76 22.5753 4.896 23.2953 5.168C24.0153 5.44 24.6473 5.84 25.1913 6.368C25.7513 6.896 26.1913 7.544 26.5113 8.312C26.8473 9.064 27.0153 9.928 27.0153 10.904V11.192ZM21.0393 15.56C21.6153 15.56 22.1433 15.464 22.6233 15.272C23.1193 15.064 23.5513 14.768 23.9193 14.384C24.2873 14 24.5753 13.544 24.7833 13.016C24.9913 12.472 25.0953 11.864 25.0953 11.192V10.904C25.0953 10.264 24.9913 9.68 24.7833 9.152C24.5753 8.608 24.2873 8.144 23.9193 7.76C23.5513 7.376 23.1193 7.08 22.6233 6.872C22.1273 6.648 21.5993 6.536 21.0393 6.536C20.4793 6.536 19.9513 6.648 19.4553 6.872C18.9593 7.08 18.5273 7.376 18.1593 7.76C17.7913 8.144 17.5033 8.608 17.2953 9.152C17.0873 9.68 16.9833 10.264 16.9833 10.904V11.192C16.9833 11.864 17.0873 12.472 17.2953 13.016C17.5033 13.544 17.7913 14 18.1593 14.384C18.5273 14.768 18.9513 15.064 19.4313 15.272C19.9273 15.464 20.4633 15.56 21.0393 15.56ZM39.6946 15.176H39.4066C39.2146 15.544 38.9666 15.864 38.6626 16.136C38.3746 16.408 38.0546 16.632 37.7026 16.808C37.3666 16.984 37.0066 17.112 36.6226 17.192C36.2386 17.288 35.8706 17.336 35.5186 17.336C34.7186 17.336 33.9746 17.2 33.2866 16.928C32.5986 16.656 31.9906 16.264 31.4626 15.752C30.9506 15.24 30.5426 14.608 30.2386 13.856C29.9506 13.088 29.8066 12.216 29.8066 11.24V10.856C29.8066 9.896 29.9586 9.04 30.2626 8.288C30.5666 7.52 30.9746 6.88 31.4866 6.368C31.9986 5.84 32.5986 5.44 33.2866 5.168C33.9746 4.896 34.7026 4.76 35.4706 4.76C36.2866 4.76 37.0466 4.944 37.7506 5.312C38.4706 5.664 39.0226 6.216 39.4066 6.968H39.6946V0.199999H41.5666V17H39.6946V15.176ZM35.7106 15.56C36.2706 15.56 36.7906 15.456 37.2706 15.248C37.7506 15.04 38.1666 14.744 38.5186 14.36C38.8866 13.976 39.1746 13.52 39.3826 12.992C39.5906 12.448 39.6946 11.848 39.6946 11.192V10.904C39.6946 10.264 39.5906 9.68 39.3826 9.152C39.1746 8.608 38.8866 8.144 38.5186 7.76C38.1666 7.376 37.7426 7.08 37.2466 6.872C36.7666 6.648 36.2546 6.536 35.7106 6.536C35.1506 6.536 34.6226 6.64 34.1266 6.848C33.6466 7.056 33.2226 7.352 32.8546 7.736C32.5026 8.12 32.2226 8.576 32.0146 9.104C31.8226 9.632 31.7266 10.216 31.7266 10.856V11.24C31.7266 11.912 31.8226 12.512 32.0146 13.04C32.2226 13.568 32.5026 14.024 32.8546 14.408C33.2226 14.776 33.6466 15.064 34.1266 15.272C34.6066 15.464 35.1346 15.56 35.7106 15.56ZM46.5419 11.624C46.5899 12.808 46.9579 13.76 47.6459 14.48C48.3339 15.2 49.2939 15.56 50.5259 15.56C51.0859 15.56 51.5739 15.496 51.9899 15.368C52.4059 15.24 52.7579 15.064 53.0459 14.84C53.3499 14.616 53.5899 14.36 53.7659 14.072C53.9579 13.768 54.1099 13.448 54.2219 13.112L55.9979 13.592C55.6619 14.696 55.0379 15.6 54.1259 16.304C53.2299 16.992 52.0139 17.336 50.4779 17.336C49.6299 17.336 48.8459 17.192 48.1259 16.904C47.4219 16.6 46.8139 16.176 46.3019 15.632C45.7899 15.088 45.3899 14.44 45.1019 13.688C44.8139 12.936 44.6699 12.104 44.6699 11.192V10.616C44.6699 9.784 44.8139 9.008 45.1019 8.288C45.4059 7.568 45.8219 6.952 46.3499 6.44C46.8779 5.912 47.4939 5.504 48.1979 5.216C48.9179 4.912 49.6939 4.76 50.5259 4.76C51.5019 4.76 52.3419 4.944 53.0459 5.312C53.7659 5.664 54.3499 6.104 54.7979 6.632C55.2619 7.16 55.5979 7.736 55.8059 8.36C56.0299 8.984 56.1419 9.56 56.1419 10.088V11.624H46.5419ZM50.5259 6.536C49.9979 6.536 49.5019 6.624 49.0379 6.8C48.5899 6.96 48.1899 7.192 47.8379 7.496C47.5019 7.8 47.2219 8.16 46.9979 8.576C46.7899 8.976 46.6539 9.416 46.5899 9.896H54.2699C54.2379 9.384 54.1099 8.92 53.8859 8.504C53.6779 8.088 53.3979 7.736 53.0459 7.448C52.7099 7.16 52.3179 6.936 51.8699 6.776C51.4379 6.616 50.9899 6.536 50.5259 6.536Z" fill="white"/>
<path d="M71.2693 12.632C70.9973 14.04 70.3493 15.176 69.3253 16.04C68.3173 16.904 66.9653 17.336 65.2693 17.336C64.3893 17.336 63.5653 17.2 62.7973 16.928C62.0453 16.656 61.3893 16.264 60.8293 15.752C60.2693 15.24 59.8293 14.608 59.5093 13.856C59.1893 13.104 59.0293 12.248 59.0293 11.288V11C59.0293 10.04 59.1893 9.176 59.5093 8.408C59.8293 7.64 60.2693 6.984 60.8293 6.44C61.4053 5.896 62.0693 5.48 62.8213 5.192C63.5893 4.904 64.4053 4.76 65.2693 4.76C66.9333 4.76 68.2773 5.192 69.3013 6.056C70.3413 6.92 70.9973 8.056 71.2693 9.464L68.2933 10.232C68.1973 9.528 67.8933 8.92 67.3813 8.408C66.8693 7.896 66.1493 7.64 65.2213 7.64C64.7893 7.64 64.3813 7.72 63.9973 7.88C63.6133 8.04 63.2773 8.272 62.9893 8.576C62.7013 8.864 62.4693 9.224 62.2933 9.656C62.1333 10.072 62.0533 10.544 62.0533 11.072V11.216C62.0533 11.744 62.1333 12.216 62.2933 12.632C62.4693 13.032 62.7013 13.368 62.9893 13.64C63.2773 13.912 63.6133 14.12 63.9973 14.264C64.3813 14.392 64.7893 14.456 65.2213 14.456C66.1493 14.456 66.8533 14.224 67.3333 13.76C67.8293 13.296 68.1493 12.672 68.2933 11.888L71.2693 12.632ZM86.0126 11.192C86.0126 12.184 85.8446 13.064 85.5086 13.832C85.1726 14.584 84.7166 15.224 84.1406 15.752C83.5646 16.264 82.9006 16.656 82.1486 16.928C81.4126 17.2 80.6366 17.336 79.8206 17.336C79.0046 17.336 78.2206 17.2 77.4686 16.928C76.7326 16.656 76.0766 16.264 75.5006 15.752C74.9246 15.224 74.4686 14.584 74.1326 13.832C73.7966 13.064 73.6286 12.184 73.6286 11.192V10.904C73.6286 9.928 73.7966 9.064 74.1326 8.312C74.4686 7.544 74.9246 6.896 75.5006 6.368C76.0766 5.84 76.7326 5.44 77.4686 5.168C78.2206 4.896 79.0046 4.76 79.8206 4.76C80.6366 4.76 81.4126 4.896 82.1486 5.168C82.9006 5.44 83.5646 5.84 84.1406 6.368C84.7166 6.896 85.1726 7.544 85.5086 8.312C85.8446 9.064 86.0126 9.928 86.0126 10.904V11.192ZM79.8206 14.456C80.2526 14.456 80.6606 14.384 81.0446 14.24C81.4286 14.096 81.7646 13.888 82.0526 13.616C82.3406 13.344 82.5646 13.016 82.7246 12.632C82.9006 12.232 82.9886 11.784 82.9886 11.288V10.808C82.9886 10.312 82.9006 9.872 82.7246 9.488C82.5646 9.088 82.3406 8.752 82.0526 8.48C81.7646 8.208 81.4286 8 81.0446 7.856C80.6606 7.712 80.2526 7.64 79.8206 7.64C79.3886 7.64 78.9806 7.712 78.5966 7.856C78.2126 8 77.8766 8.208 77.5886 8.48C77.3006 8.752 77.0686 9.088 76.8926 9.488C76.7326 9.872 76.6526 10.312 76.6526 10.808V11.288C76.6526 11.784 76.7326 12.232 76.8926 12.632C77.0686 13.016 77.3006 13.344 77.5886 13.616C77.8766 13.888 78.2126 14.096 78.5966 14.24C78.9806 14.384 79.3886 14.456 79.8206 14.456ZM92.0679 17H89.0439V5.096H92.0679V6.872H92.4999C92.7719 6.2 93.2119 5.68 93.8199 5.312C94.4279 4.944 95.1399 4.76 95.9559 4.76C96.5319 4.76 97.0679 4.856 97.5639 5.048C98.0759 5.224 98.5239 5.504 98.9079 5.888C99.2919 6.272 99.5879 6.76 99.7959 7.352C100.02 7.944 100.132 8.648 100.132 9.464V17H97.1079V10.232C97.1079 9.384 96.8999 8.72 96.4839 8.24C96.0839 7.744 95.4999 7.496 94.7319 7.496C93.8359 7.496 93.1639 7.8 92.7159 8.408C92.2839 9 92.0679 9.8 92.0679 10.808V17ZM106.763 17H103.739V5.096H106.763V6.872H107.195C107.467 6.2 107.907 5.68 108.515 5.312C109.123 4.944 109.835 4.76 110.651 4.76C111.227 4.76 111.763 4.856 112.259 5.048C112.771 5.224 113.219 5.504 113.603 5.888C113.987 6.272 114.283 6.76 114.491 7.352C114.715 7.944 114.827 8.648 114.827 9.464V17H111.803V10.232C111.803 9.384 111.595 8.72 111.179 8.24C110.779 7.744 110.195 7.496 109.427 7.496C108.531 7.496 107.859 7.8 107.411 8.408C106.979 9 106.763 9.8 106.763 10.808V17ZM121.099 12.032C121.115 12.384 121.195 12.712 121.339 13.016C121.499 13.304 121.707 13.56 121.963 13.784C122.235 13.992 122.539 14.16 122.875 14.288C123.227 14.4 123.595 14.456 123.979 14.456C124.731 14.456 125.307 14.328 125.707 14.072C126.107 13.8 126.395 13.48 126.571 13.112L129.163 14.552C129.019 14.856 128.819 15.176 128.562 15.512C128.307 15.832 127.971 16.128 127.555 16.4C127.155 16.672 126.659 16.896 126.067 17.072C125.491 17.248 124.811 17.336 124.027 17.336C123.131 17.336 122.315 17.192 121.579 16.904C120.843 16.616 120.203 16.2 119.659 15.656C119.131 15.112 118.715 14.448 118.411 13.664C118.123 12.88 117.979 11.992 117.979 11V10.856C117.979 9.944 118.131 9.112 118.435 8.36C118.755 7.608 119.187 6.968 119.73 6.44C120.275 5.912 120.907 5.504 121.627 5.216C122.363 4.912 123.147 4.76 123.979 4.76C125.003 4.76 125.883 4.944 126.619 5.312C127.355 5.664 127.963 6.12 128.443 6.68C128.923 7.224 129.275 7.832 129.499 8.504C129.723 9.16 129.835 9.8 129.835 10.424V12.032H121.099ZM123.955 7.496C123.187 7.496 122.563 7.696 122.083 8.096C121.603 8.48 121.291 8.928 121.147 9.44H126.763C126.667 8.88 126.363 8.416 125.851 8.048C125.355 7.68 124.723 7.496 123.955 7.496ZM144.746 12.632C144.474 14.04 143.826 15.176 142.802 16.04C141.794 16.904 140.442 17.336 138.746 17.336C137.866 17.336 137.042 17.2 136.274 16.928C135.522 16.656 134.866 16.264 134.306 15.752C133.746 15.24 133.306 14.608 132.986 13.856C132.666 13.104 132.506 12.248 132.506 11.288V11C132.506 10.04 132.666 9.176 132.986 8.408C133.306 7.64 133.746 6.984 134.306 6.44C134.882 5.896 135.546 5.48 136.298 5.192C137.066 4.904 137.882 4.76 138.746 4.76C140.41 4.76 141.754 5.192 142.778 6.056C143.818 6.92 144.474 8.056 144.746 9.464L141.77 10.232C141.674 9.528 141.37 8.92 140.858 8.408C140.346 7.896 139.626 7.64 138.698 7.64C138.266 7.64 137.858 7.72 137.474 7.88C137.09 8.04 136.754 8.272 136.466 8.576C136.178 8.864 135.946 9.224 135.77 9.656C135.61 10.072 135.53 10.544 135.53 11.072V11.216C135.53 11.744 135.61 12.216 135.77 12.632C135.946 13.032 136.178 13.368 136.466 13.64C136.754 13.912 137.09 14.12 137.474 14.264C137.858 14.392 138.266 14.456 138.698 14.456C139.626 14.456 140.33 14.224 140.81 13.76C141.306 13.296 141.626 12.672 141.77 11.888L144.746 12.632ZM147.489 5.096H151.017V0.199999H154.041V5.096H158.337V7.976H154.041V13.4C154.041 13.88 154.257 14.12 154.689 14.12H157.905V17H152.865C152.321 17 151.873 16.824 151.521 16.472C151.185 16.12 151.017 15.672 151.017 15.128V7.976H147.489V5.096Z" fill="#5E41D3"/>
</svg>
